<svg width="90" height="90" viewBox="0 0 90 90" fill="none" xmlns="http://www.w3.org/2000/svg">
<g clip-path="url(#clip0_26_53)">
<path d="M13.995 25.11C14.8234 25.11 15.495 24.4384 15.495 23.61C15.495 22.7816 14.8234 22.11 13.995 22.11C13.1666 22.11 12.495 22.7816 12.495 23.61C12.495 24.4384 13.1666 25.11 13.995 25.11Z" fill="#06C279"/>
<path d="M24 25.11C24.8284 25.11 25.5 24.4384 25.5 23.61C25.5 22.7816 24.8284 22.11 24 22.11C23.1716 22.11 22.5 22.7816 22.5 23.61C22.5 24.4384 23.1716 25.11 24 25.11Z" fill="#06C279"/>
<path d="M19.005 25.11C19.8334 25.11 20.505 24.4384 20.505 23.61C20.505 22.7816 19.8334 22.11 19.005 22.11C18.1766 22.11 17.505 22.7816 17.505 23.61C17.505 24.4384 18.1766 25.11 19.005 25.11Z" fill="#06C279"/>
<path d="M30 45.375L34.5 40.875C34.7825 40.5925 34.9411 40.2094 34.9411 39.81C34.9411 39.4105 34.7825 39.0274 34.5 38.745C34.2175 38.4625 33.8345 38.3038 33.435 38.3038C33.0355 38.3038 32.6525 38.4625 32.37 38.745L26.79 44.34C26.5106 44.621 26.3538 45.0012 26.3538 45.3975C26.3538 45.7938 26.5106 46.1739 26.79 46.455L32.37 52.05C32.5094 52.1906 32.6753 52.3022 32.8581 52.3783C33.0409 52.4545 33.237 52.4937 33.435 52.4937C33.633 52.4937 33.8291 52.4545 34.0119 52.3783C34.1947 52.3022 34.3606 52.1906 34.5 52.05C34.7794 51.7689 34.9362 51.3888 34.9362 50.9925C34.9362 50.5962 34.7794 50.216 34.5 49.935L30 45.375Z" fill="#06C279"/>
<path d="M51.48 52.0201C51.761 52.2995 52.1412 52.4563 52.5375 52.4563C52.9338 52.4563 53.3139 52.2995 53.595 52.0201L59.19 46.5001C59.4694 46.2191 59.6262 45.8389 59.6262 45.4426C59.6262 45.0463 59.4694 44.6661 59.19 44.3851L53.595 38.7901C53.3125 38.5096 52.9302 38.3529 52.5322 38.3543C52.1341 38.3557 51.753 38.5151 51.4725 38.7976C51.192 39.08 51.0353 39.4623 51.0367 39.8604C51.0381 40.2584 51.1975 40.6396 51.48 40.9201L55.98 45.4201L51.48 49.9201C51.2052 50.2005 51.0512 50.5775 51.0512 50.9701C51.0512 51.3627 51.2052 51.7397 51.48 52.0201Z" fill="#06C279"/>
<path d="M46.5 39.225C46.3288 39.1258 46.1397 39.0615 45.9435 39.0357C45.7474 39.01 45.548 39.0232 45.357 39.0748C45.166 39.1264 44.9871 39.2153 44.8306 39.3363C44.6741 39.4573 44.543 39.6081 44.445 39.78L38.91 49.5C38.8015 49.6708 38.7286 49.8617 38.6958 50.0613C38.663 50.2609 38.6708 50.4651 38.719 50.6616C38.7671 50.8581 38.8545 51.0428 38.9759 51.2047C39.0972 51.3665 39.2501 51.5022 39.4252 51.6034C39.6004 51.7046 39.7942 51.7694 39.995 51.7938C40.1959 51.8182 40.3995 51.8017 40.5938 51.7453C40.7881 51.689 40.969 51.5939 41.1256 51.4658C41.2822 51.3377 41.4113 51.1793 41.505 51L47.1 41.325C47.2047 41.1493 47.2723 40.954 47.2987 40.7511C47.3251 40.5482 47.3097 40.3421 47.2535 40.1454C47.1973 39.9488 47.1015 39.7656 46.9719 39.6073C46.8423 39.4491 46.6817 39.3189 46.5 39.225Z" fill="#06C279"/>
<path d="M83.79 60C83.7015 59.9993 83.6153 59.9716 83.543 59.9207C83.4706 59.8698 83.4155 59.798 83.385 59.715C82.7881 58.1449 81.9423 56.6811 80.88 55.38C80.8297 55.3072 80.8027 55.2209 80.8027 55.1325C80.8027 55.044 80.8297 54.9577 80.88 54.885C81.3368 54.0931 81.4607 53.1524 81.2245 52.2693C80.9882 51.3862 80.4112 50.6329 79.62 50.175L78.495 49.5V22.11C78.495 20.9165 78.0209 19.7719 77.177 18.928C76.333 18.0841 75.1884 17.61 73.995 17.61H12C10.8065 17.61 9.66193 18.0841 8.81802 18.928C7.97411 19.7719 7.5 20.9165 7.5 22.11V60.12C7.50395 61.0457 7.87344 61.9324 8.52802 62.5869C9.18261 63.2415 10.0693 63.611 10.995 63.615H31.5L30 69.165H28.005C26.544 69.166 25.126 69.6595 23.9801 70.5659C22.8342 71.4722 22.0274 72.7384 21.69 74.16H18C17.6022 74.16 17.2206 74.318 16.9393 74.5993C16.658 74.8806 16.5 75.2621 16.5 75.6599C16.5 76.0578 16.658 76.4393 16.9393 76.7206C17.2206 77.0019 17.6022 77.1599 18 77.1599H56.205C56.1796 77.5183 56.2151 77.8784 56.31 78.225C56.4225 78.665 56.6226 79.0778 56.8984 79.4386C57.1741 79.7994 57.5199 80.1009 57.915 80.3249L61.08 82.155C61.473 82.3805 61.9065 82.5265 62.3559 82.5845C62.8053 82.6425 63.2617 82.6115 63.6991 82.4931C64.1365 82.3747 64.5462 82.1713 64.905 81.8945C65.2637 81.6177 65.5645 81.273 65.79 80.8799C65.8386 80.8034 65.9085 80.7428 65.9911 80.7055C66.0737 80.6682 66.1654 80.6558 66.255 80.6699C67.9027 80.9549 69.5872 80.9549 71.235 80.6699C71.3262 80.6552 71.4198 80.6688 71.503 80.7091C71.5862 80.7493 71.655 80.8142 71.7 80.895C72.0057 81.4184 72.444 81.8521 72.9706 82.1523C73.4973 82.4525 74.0938 82.6086 74.7 82.6049C75.3047 82.6108 75.9001 82.4555 76.425 82.155L79.59 80.3249C79.9829 80.0982 80.3271 79.7959 80.6025 79.4355C80.878 79.0751 81.0794 78.6636 81.195 78.225C81.3144 77.7889 81.3454 77.3333 81.2862 76.8851C81.2269 76.4369 81.0786 76.005 80.85 75.615C80.7984 75.5399 80.7708 75.451 80.7708 75.36C80.7708 75.2689 80.7984 75.18 80.85 75.105C81.909 73.807 82.7546 72.3488 83.355 70.785C83.3836 70.7007 83.4382 70.6276 83.511 70.5764C83.5838 70.5252 83.671 70.4984 83.76 70.5C84.6738 70.496 85.549 70.1313 86.1951 69.4851C86.8413 68.839 87.206 67.9637 87.21 67.05V63.39C87.1944 62.4906 86.8281 61.6328 86.1892 60.9996C85.5504 60.3663 84.6895 60.0076 83.79 60ZM10.5 22.11C10.5 21.7122 10.658 21.3306 10.9393 21.0493C11.2206 20.768 11.6022 20.61 12 20.61H73.995C74.3928 20.61 74.7743 20.768 75.0556 21.0493C75.3369 21.3306 75.495 21.7122 75.495 22.11V26.61H10.5V22.11ZM10.995 60.615C10.93 60.615 10.8656 60.6022 10.8056 60.5773C10.7455 60.5524 10.6909 60.5159 10.645 60.47C10.599 60.424 10.5626 60.3694 10.5377 60.3094C10.5128 60.2493 10.5 60.185 10.5 60.12V29.61H75.495V48C74.7852 47.8115 74.0336 47.8554 73.3506 48.1254C72.6676 48.3953 72.0891 48.8771 71.7 49.5C71.6533 49.574 71.5854 49.6321 71.5051 49.6669C71.4248 49.7017 71.3359 49.7115 71.25 49.695C69.601 49.4249 67.919 49.4249 66.27 49.695C66.184 49.7137 66.0943 49.705 66.0136 49.67C65.9328 49.635 65.8651 49.5755 65.82 49.5C65.5947 49.1067 65.2937 48.762 64.9346 48.4856C64.5754 48.2092 64.1651 48.0065 63.7273 47.8894C63.2895 47.7723 62.8328 47.743 62.3836 47.8031C61.9344 47.8633 61.5016 48.0118 61.11 48.24L57.945 50.07C57.5509 50.2916 57.2057 50.5906 56.9299 50.9488C56.6541 51.3071 56.4535 51.7173 56.34 52.155C56.1001 53.0393 56.2187 53.9825 56.67 54.78C56.7247 54.8509 56.7544 54.9379 56.7544 55.0275C56.7544 55.117 56.7247 55.2041 56.67 55.275C55.6077 56.5761 54.7619 58.0399 54.165 59.61C54.1345 59.693 54.0794 59.7648 54.007 59.8157C53.9346 59.8666 53.8485 59.8943 53.76 59.895C53.0253 59.896 52.3103 60.1326 51.72 60.57L10.995 60.615ZM51 69.165H33L34.5 63.615H50.25V67.05C50.2596 67.8184 50.5233 68.5621 51 69.165ZM28.02 72.165H54.72C55.0628 72.8565 55.4538 73.5231 55.89 74.16H24.855C25.1382 73.564 25.5843 73.0604 26.1417 72.7073C26.6992 72.3543 27.3452 72.1662 28.005 72.165H28.02ZM84.24 67.05C84.24 67.1693 84.1926 67.2838 84.1082 67.3682C84.0238 67.4525 83.9093 67.5 83.79 67.5C83.0913 67.5017 82.4094 67.7146 81.8339 68.1108C81.2583 68.507 80.816 69.0679 80.565 69.72C80.0855 70.9846 79.4069 72.1645 78.555 73.215C78.1157 73.7576 77.8505 74.4203 77.7943 75.1162C77.7381 75.8122 77.8934 76.5088 78.24 77.1149C78.2641 77.1666 78.2766 77.2229 78.2766 77.2799C78.2766 77.337 78.2641 77.3933 78.24 77.445C78.2269 77.5045 78.2015 77.5607 78.1653 77.6098C78.1291 77.6589 78.083 77.6998 78.03 77.73L74.91 79.5C74.8579 79.5289 74.8005 79.5473 74.7413 79.5539C74.682 79.5605 74.622 79.5553 74.5648 79.5386C74.5076 79.5218 74.4543 79.4939 74.408 79.4563C74.3616 79.4188 74.3232 79.3724 74.295 79.3199C73.9403 78.7155 73.4107 78.2327 72.776 77.9355C72.1413 77.6382 71.4314 77.5404 70.74 77.6549C69.4195 77.8799 68.0705 77.8799 66.75 77.6549C66.057 77.5418 65.346 77.6418 64.7111 77.9419C64.0762 78.2419 63.5475 78.7277 63.195 79.335C63.1327 79.4355 63.0344 79.5086 62.9202 79.5392C62.8059 79.5699 62.6842 79.5558 62.58 79.5L59.415 77.6699C59.362 77.6398 59.3159 77.5989 59.2797 77.5498C59.2435 77.5007 59.2181 77.4445 59.205 77.3849C59.1809 77.3333 59.1684 77.277 59.1684 77.2199C59.1684 77.1629 59.1809 77.1066 59.205 77.0549C59.5475 76.4476 59.7005 75.7517 59.6444 75.0567C59.5882 74.3618 59.3255 73.6994 58.89 73.1549C58.0303 72.1072 57.3464 70.9268 56.865 69.66C56.6134 69.0251 56.1775 68.48 55.6134 68.0951C55.0493 67.7101 54.3829 67.5028 53.7 67.5C53.5806 67.5 53.4662 67.4525 53.3818 67.3682C53.2974 67.2838 53.25 67.1693 53.25 67.05V63.39C53.2479 63.3303 53.2581 63.2708 53.28 63.2153C53.3018 63.1598 53.3349 63.1093 53.3771 63.0671C53.4193 63.0249 53.4698 62.9918 53.5253 62.9699C53.5809 62.9481 53.6403 62.9379 53.7 62.94C54.3966 62.9373 55.0761 62.7238 55.6491 62.3275C56.222 61.9313 56.6616 61.3708 56.91 60.72C57.388 59.4514 58.0722 58.2706 58.935 57.225C59.3705 56.6805 59.6332 56.0182 59.6894 55.3232C59.7455 54.6282 59.5925 53.9323 59.25 53.325C59.2256 53.2707 59.2129 53.2119 59.2129 53.1525C59.2129 53.093 59.2256 53.0342 59.25 52.98C59.2622 52.922 59.2874 52.8675 59.3238 52.8207C59.3602 52.7739 59.4068 52.7361 59.46 52.71L62.625 50.88C62.6986 50.8595 62.7764 50.8595 62.85 50.88C62.925 50.8809 62.9987 50.9006 63.0642 50.9373C63.1297 50.974 63.185 51.0265 63.225 51.09C63.5791 51.6958 64.1081 52.1804 64.7425 52.4802C65.3769 52.78 66.0871 52.881 66.78 52.77C68.1005 52.545 69.4495 52.545 70.77 52.77C71.4674 52.8642 72.1771 52.7456 72.806 52.4298C73.435 52.114 73.9539 51.6156 74.295 51C74.3243 50.9505 74.3632 50.9073 74.4093 50.873C74.4554 50.8386 74.5079 50.8137 74.5637 50.7998C74.6195 50.7858 74.6775 50.7831 74.7344 50.7917C74.7912 50.8003 74.8458 50.8201 74.895 50.85L78.06 52.68C78.1132 52.7061 78.1598 52.7439 78.1962 52.7907C78.2325 52.8375 78.2578 52.892 78.27 52.95C78.2944 53.0042 78.307 53.063 78.307 53.1225C78.307 53.1819 78.2944 53.2407 78.27 53.295C77.9247 53.8988 77.7701 54.5929 77.8263 55.2862C77.8825 55.9795 78.1469 56.6396 78.585 57.18C79.4373 58.2357 80.1158 59.4206 80.595 60.69C80.8314 61.3529 81.2634 61.9286 81.8338 62.3411C82.4042 62.7535 83.0863 62.9832 83.79 63C83.8496 62.9979 83.9091 63.0081 83.9646 63.0299C84.0202 63.0518 84.0706 63.0849 84.1128 63.1271C84.155 63.1693 84.1881 63.2198 84.21 63.2753C84.2319 63.3308 84.2421 63.3903 84.24 63.45V67.05Z" fill="#06C279"/>
<path d="M68.745 58.4099C67.3981 58.4099 66.0815 58.8093 64.9616 59.5576C63.8417 60.3059 62.9688 61.3695 62.4534 62.6138C61.9379 63.8582 61.8031 65.2275 62.0659 66.5485C62.3286 67.8695 62.9772 69.0829 63.9296 70.0353C64.882 70.9877 66.0954 71.6363 67.4164 71.8991C68.7375 72.1618 70.1067 72.027 71.3511 71.5115C72.5955 70.9961 73.659 70.1233 74.4073 69.0034C75.1556 67.8835 75.555 66.5668 75.555 65.2199C75.555 63.4138 74.8375 61.6816 73.5604 60.4045C72.2833 59.1274 70.5511 58.4099 68.745 58.4099ZM68.745 69.0299C67.9915 69.0299 67.2548 68.8065 66.6283 68.3878C66.0017 67.9692 65.5134 67.3741 65.225 66.6779C64.9367 65.9818 64.8612 65.2157 65.0082 64.4766C65.1552 63.7376 65.5181 63.0587 66.0509 62.5258C66.5838 61.993 67.2626 61.6301 68.0017 61.4831C68.7408 61.3361 69.5068 61.4116 70.203 61.6999C70.8992 61.9883 71.4943 62.4766 71.9129 63.1032C72.3316 63.7297 72.555 64.4664 72.555 65.2199C72.5471 66.2252 72.1422 67.1866 71.4285 67.8946C70.7149 68.6027 69.7503 69 68.745 68.9999V69.0299Z" fill="#06C279"/>
</g>
<defs>
<clipPath id="clip0_26_53">
<rect width="90" height="90" fill="white"/>
</clipPath>
</defs>
</svg>
